<mxfile host="app.diagrams.net" agent="Mozilla/5.0 (Windows NT 10.0; Win64; x64) AppleWebKit/537.36 (KHTML, like Gecko) Chrome/138.0.0.0 Safari/537.36 OPR/122.0.0.0" version="28.2.4">
  <diagram name="Página-1" id="pSauHtqoIHAxoHKVgT4Q">
    <mxGraphModel dx="1384" dy="788" grid="1" gridSize="10" guides="1" tooltips="1" connect="1" arrows="1" fold="1" page="1" pageScale="1" pageWidth="827" pageHeight="1169" math="0" shadow="0">
      <root>
        <mxCell id="0" />
        <mxCell id="1" parent="0" />
        <mxCell id="XFwUT3AsIX7ien2unURk-1" value="Fim" style="ellipse;whiteSpace=wrap;html=1;" vertex="1" parent="1">
          <mxGeometry x="354" y="880" width="120" height="80" as="geometry" />
        </mxCell>
        <mxCell id="XFwUT3AsIX7ien2unURk-4" value="" style="edgeStyle=orthogonalEdgeStyle;rounded=0;orthogonalLoop=1;jettySize=auto;html=1;" edge="1" parent="1" source="XFwUT3AsIX7ien2unURk-2" target="XFwUT3AsIX7ien2unURk-3">
          <mxGeometry relative="1" as="geometry" />
        </mxCell>
        <mxCell id="XFwUT3AsIX7ien2unURk-2" value="Ínicio" style="ellipse;whiteSpace=wrap;html=1;" vertex="1" parent="1">
          <mxGeometry x="354" y="10" width="120" height="80" as="geometry" />
        </mxCell>
        <mxCell id="XFwUT3AsIX7ien2unURk-6" value="" style="edgeStyle=orthogonalEdgeStyle;rounded=0;orthogonalLoop=1;jettySize=auto;html=1;" edge="1" parent="1" source="XFwUT3AsIX7ien2unURk-3" target="XFwUT3AsIX7ien2unURk-5">
          <mxGeometry relative="1" as="geometry" />
        </mxCell>
        <mxCell id="XFwUT3AsIX7ien2unURk-3" value="Somatorio = 0" style="whiteSpace=wrap;html=1;" vertex="1" parent="1">
          <mxGeometry x="354" y="130" width="120" height="60" as="geometry" />
        </mxCell>
        <mxCell id="XFwUT3AsIX7ien2unURk-8" value="" style="edgeStyle=orthogonalEdgeStyle;rounded=0;orthogonalLoop=1;jettySize=auto;html=1;" edge="1" parent="1" source="XFwUT3AsIX7ien2unURk-5" target="XFwUT3AsIX7ien2unURk-7">
          <mxGeometry relative="1" as="geometry" />
        </mxCell>
        <mxCell id="XFwUT3AsIX7ien2unURk-5" value="Ler Quantos" style="shape=parallelogram;perimeter=parallelogramPerimeter;whiteSpace=wrap;html=1;fixedSize=1;" vertex="1" parent="1">
          <mxGeometry x="354" y="240" width="120" height="60" as="geometry" />
        </mxCell>
        <mxCell id="XFwUT3AsIX7ien2unURk-10" value="" style="edgeStyle=orthogonalEdgeStyle;rounded=0;orthogonalLoop=1;jettySize=auto;html=1;" edge="1" parent="1" source="XFwUT3AsIX7ien2unURk-7" target="XFwUT3AsIX7ien2unURk-9">
          <mxGeometry relative="1" as="geometry" />
        </mxCell>
        <mxCell id="XFwUT3AsIX7ien2unURk-7" value="Ler N" style="shape=parallelogram;perimeter=parallelogramPerimeter;whiteSpace=wrap;html=1;fixedSize=1;" vertex="1" parent="1">
          <mxGeometry x="354" y="330" width="120" height="60" as="geometry" />
        </mxCell>
        <mxCell id="XFwUT3AsIX7ien2unURk-13" value="" style="edgeStyle=orthogonalEdgeStyle;rounded=0;orthogonalLoop=1;jettySize=auto;html=1;" edge="1" parent="1" source="XFwUT3AsIX7ien2unURk-9" target="XFwUT3AsIX7ien2unURk-12">
          <mxGeometry relative="1" as="geometry" />
        </mxCell>
        <mxCell id="XFwUT3AsIX7ien2unURk-9" value="Quantos = Quantos - 1&lt;div&gt;Somatorio = Somatorio + N&lt;/div&gt;" style="whiteSpace=wrap;html=1;" vertex="1" parent="1">
          <mxGeometry x="311" y="430" width="206" height="60" as="geometry" />
        </mxCell>
        <mxCell id="XFwUT3AsIX7ien2unURk-14" style="edgeStyle=orthogonalEdgeStyle;rounded=0;orthogonalLoop=1;jettySize=auto;html=1;entryX=1;entryY=0.5;entryDx=0;entryDy=0;" edge="1" parent="1" source="XFwUT3AsIX7ien2unURk-12" target="XFwUT3AsIX7ien2unURk-7">
          <mxGeometry relative="1" as="geometry">
            <Array as="points">
              <mxPoint x="700" y="560" />
              <mxPoint x="700" y="360" />
            </Array>
          </mxGeometry>
        </mxCell>
        <mxCell id="XFwUT3AsIX7ien2unURk-15" value="Não" style="edgeLabel;html=1;align=center;verticalAlign=middle;resizable=0;points=[];" vertex="1" connectable="0" parent="XFwUT3AsIX7ien2unURk-14">
          <mxGeometry x="-0.0499" y="2" relative="1" as="geometry">
            <mxPoint as="offset" />
          </mxGeometry>
        </mxCell>
        <mxCell id="XFwUT3AsIX7ien2unURk-17" value="" style="edgeStyle=orthogonalEdgeStyle;rounded=0;orthogonalLoop=1;jettySize=auto;html=1;" edge="1" parent="1" source="XFwUT3AsIX7ien2unURk-12" target="XFwUT3AsIX7ien2unURk-16">
          <mxGeometry relative="1" as="geometry" />
        </mxCell>
        <mxCell id="XFwUT3AsIX7ien2unURk-19" value="Text" style="edgeLabel;html=1;align=center;verticalAlign=middle;resizable=0;points=[];" vertex="1" connectable="0" parent="XFwUT3AsIX7ien2unURk-17">
          <mxGeometry x="-0.2333" y="2" relative="1" as="geometry">
            <mxPoint as="offset" />
          </mxGeometry>
        </mxCell>
        <mxCell id="XFwUT3AsIX7ien2unURk-12" value="Quantos = 0" style="rhombus;whiteSpace=wrap;html=1;" vertex="1" parent="1">
          <mxGeometry x="374" y="520" width="80" height="80" as="geometry" />
        </mxCell>
        <mxCell id="XFwUT3AsIX7ien2unURk-18" value="" style="edgeStyle=orthogonalEdgeStyle;rounded=0;orthogonalLoop=1;jettySize=auto;html=1;" edge="1" parent="1" source="XFwUT3AsIX7ien2unURk-16" target="XFwUT3AsIX7ien2unURk-1">
          <mxGeometry relative="1" as="geometry" />
        </mxCell>
        <mxCell id="XFwUT3AsIX7ien2unURk-16" value="Escrever &quot;A soma dos números que escreveste é: &quot;, Somatorio" style="shape=parallelogram;perimeter=parallelogramPerimeter;whiteSpace=wrap;html=1;fixedSize=1;" vertex="1" parent="1">
          <mxGeometry x="231" y="720" width="366" height="60" as="geometry" />
        </mxCell>
      </root>
    </mxGraphModel>
  </diagram>
</mxfile>
